<?xml version="1.0" encoding="utf-8"?>
<!-- Generator: Adobe Illustrator 24.1.2, SVG Export Plug-In . SVG Version: 6.00 Build 0)  -->
<svg version="1.1" id="Layer_1" xmlns="http://www.w3.org/2000/svg" xmlns:xlink="http://www.w3.org/1999/xlink" x="0px" y="0px"
	 viewBox="0 0 250 100" style="enable-background:new 0 0 250 100;" xml:space="preserve">
<style type="text/css">
	.st0{fill:#FFFFFF;}
</style>
<g>
	<g>
		<rect x="-13.38" y="44.33" class="st0" width="9.16" height="11.35"/>
	</g>
</g>
<g>
	<g>
		<rect x="0" y="44.33" class="st0" width="9.16" height="11.35"/>
	</g>
</g>
<g>
	<g>
		<rect x="13.37" y="39.52" class="st0" width="9.16" height="20.96"/>
	</g>
</g>
<g>
	<g>
		<rect x="26.75" y="33.85" class="st0" width="9.16" height="32.31"/>
	</g>
</g>
<g>
	<g>
		<rect x="40.13" y="23.81" class="st0" width="9.16" height="52.4"/>
	</g>
</g>
<g>
	<g>
		<rect x="53.51" y="0" class="st0" width="9.16" height="100"/>
	</g>
</g>
<g>
	<g>
		<rect x="66.89" y="8.52" class="st0" width="9.16" height="82.97"/>
	</g>
</g>
<g>
	<g>
		<rect x="80.27" y="25.55" class="st0" width="9.16" height="48.91"/>
	</g>
</g>
<g>
	<g>
		<rect x="93.65" y="35.81" class="st0" width="9.16" height="28.39"/>
	</g>
</g>
<g>
	<g>
		<rect x="107.02" y="40.18" class="st0" width="9.16" height="19.65"/>
	</g>
</g>
<g>
	<g>
		<rect x="120.4" y="44.33" class="st0" width="9.16" height="11.35"/>
	</g>
</g>
<g>
	<g>
		<rect x="133.78" y="44.33" class="st0" width="9.16" height="11.35"/>
	</g>
</g>
<g>
	<g>
		<rect x="107.02" y="44.33" class="st0" width="9.16" height="11.35"/>
	</g>
</g>
<g>
	<g>
		<rect x="120.4" y="44.33" class="st0" width="9.16" height="11.35"/>
	</g>
</g>
<g>
	<g>
		<rect x="133.78" y="39.52" class="st0" width="9.16" height="20.96"/>
	</g>
</g>
<g>
	<g>
		<rect x="147.16" y="33.85" class="st0" width="9.16" height="32.31"/>
	</g>
</g>
<g>
	<g>
		<rect x="160.54" y="23.81" class="st0" width="9.16" height="52.4"/>
	</g>
</g>
<g>
	<g>
		<rect x="173.92" y="0" class="st0" width="9.16" height="100"/>
	</g>
</g>
<g>
	<g>
		<rect x="187.29" y="8.52" class="st0" width="9.16" height="82.97"/>
	</g>
</g>
<g>
	<g>
		<rect x="200.67" y="25.55" class="st0" width="9.16" height="48.91"/>
	</g>
</g>
<g>
	<g>
		<rect x="214.05" y="35.81" class="st0" width="9.16" height="28.39"/>
	</g>
</g>
<g>
	<g>
		<rect x="227.43" y="40.18" class="st0" width="9.16" height="19.65"/>
	</g>
</g>
<g>
	<g>
		<rect x="240.81" y="44.33" class="st0" width="9.16" height="11.35"/>
	</g>
</g>
<g>
	<g>
		<rect x="254.19" y="44.33" class="st0" width="9.16" height="11.35"/>
	</g>
</g>
</svg>
