<?xml version="1.0" encoding="utf-8"?>
<!-- Generator: Adobe Illustrator 24.1.2, SVG Export Plug-In . SVG Version: 6.00 Build 0)  -->
<svg version="1.1" id="icon_7" xmlns="http://www.w3.org/2000/svg" xmlns:xlink="http://www.w3.org/1999/xlink" x="0px" y="0px"
	 viewBox="0 0 363.3 363.3" style="enable-background:new 0 0 363.3 363.3;" xml:space="preserve">
<style type="text/css">
	.st0{fill:none;stroke:#FFFFFF;stroke-width:15;stroke-linecap:round;stroke-linejoin:round;}
</style>
<path id="circle3" class="st0" d="M296.7,105.7c23.1,24.9,32.2,83.1-10.7,133.4s-72,70.8-90.1,77.2s-59.5,6.8-85.7-19.7
	c-27.1-27.5-58.9-70.3-47.2-128s26.8-90.2,62.6-105.2c19-8,55.5-7.1,91.2,1.7C248.2,72.8,279,86.6,296.7,105.7z"/>
<path id="circle1" class="st0" d="M180.5,45.8c34.3-6,89.6,18,109.3,81.7s21.3,99.7,16.7,118.5s-27.1,54.2-64.5,62
	c-38.7,8.1-93.4,11.7-136.7-29.6s-63-71.8-56.2-110.4c3.6-20.5,24.7-51,52-76.5C125.2,69.1,154.1,50.5,180.5,45.8z"/>
<path id="circle2" class="st0" d="M90.8,177.3c-2-22.6,16.7-57,59.1-66.1s65.7-8.1,77.7-4.1s33.5,20.6,36.4,45.3
	c3,25.5,2.2,61.1-27,86.8s-50,36.7-74.6,30.1c-13.1-3.5-31.6-18.9-46.5-38C102.7,214.4,92.3,194.6,90.8,177.3z"/>
</svg>
