<?xml version="1.0" encoding="utf-8"?>
<!-- Generator: Adobe Illustrator 24.1.2, SVG Export Plug-In . SVG Version: 6.00 Build 0)  -->
<svg version="1.1" id="icon_6" xmlns="http://www.w3.org/2000/svg" xmlns:xlink="http://www.w3.org/1999/xlink" x="0px" y="0px"
	 viewBox="0 0 363.3 363.3" style="enable-background:new 0 0 363.3 363.3;" xml:space="preserve">
<style type="text/css">
	.st0{fill:#FFFFFF;}
	.st1{fill:none;stroke:#FFFFFF;stroke-width:18;stroke-linecap:round;stroke-linejoin:round;}
	.st2{fill:none;stroke:#FFFFFF;stroke-width:5;stroke-linecap:round;stroke-linejoin:round;}
</style>
<path id="shape4" class="st0" d="M271.6,53.2c22.5,0,40.8,18.3,40.8,40.8v178.3c0,22.5-18.3,40.8-40.8,40.8l0,0H93.3
	c-22.5,0-40.8-18.3-40.8-40.8l0,0V94c0-22.5,18.3-40.8,40.8-40.8H271.6 M271.6,31.2H93.3c-34.7,0-62.8,28.1-62.8,62.8v178.3
	c0,34.7,28.1,62.8,62.8,62.8h178.3c34.7,0,62.8-28.1,62.8-62.8V94C334.4,59.3,306.2,31.2,271.6,31.2L271.6,31.2z"/>
<path id="shape3" class="st1" d="M126.2,83.9h113.1c22.5,0,40.8,18.3,40.8,40.8v113.1c0,22.5-18.3,40.8-40.8,40.8H126.2
	c-22.5,0-40.8-18.3-40.8-40.8V124.7C85.4,102.2,103.7,83.9,126.2,83.9z"/>
<path id="shape2" class="st0" d="M208.6,120.9c17,0,30.8,13.8,30.8,30.8v55.4c0,17-13.8,30.8-30.8,30.9h-55.4
	c-17,0-30.8-13.8-30.8-30.8v-55.5c0-17,13.8-30.8,30.8-30.8L208.6,120.9 M208.6,110.9h-55.4c-22.5,0-40.8,18.3-40.8,40.8l0,0v55.4
	c0,22.5,18.3,40.8,40.8,40.9l0,0h55.4c22.5,0,40.8-18.3,40.8-40.8l0,0v-55.5C249.5,129.2,231.2,110.9,208.6,110.9L208.6,110.9z"/>
<path id="shape1" class="st2" d="M173.3,142.9h17.3c15.5,0,28.1,12.6,28.1,28.1v17.3c0,15.5-12.6,28.1-28.1,28.1h-17.3
	c-15.5,0-28.1-12.6-28.1-28.1V171C145.2,155.5,157.8,142.9,173.3,142.9z"/>
</svg>
