<?xml version="1.0" encoding="utf-8"?>
<!-- Generator: Adobe Illustrator 24.1.2, SVG Export Plug-In . SVG Version: 6.00 Build 0)  -->
<svg version="1.1" xmlns="http://www.w3.org/2000/svg" xmlns:xlink="http://www.w3.org/1999/xlink" x="0px" y="0px"
	 viewBox="0 0 250 100" style="enable-background:new 0 0 250 100;" xml:space="preserve">
<style type="text/css">
	.st0{fill:#FFFFFF;}
</style>
<g id="Layer_1">
	<path class="st0" d="M135.93,50.02h-21.42c-2.39,0-4.62,1.19-5.94,3.17l-4.72,7.08L92.95,5.76c-0.67-3.3-3.55-5.68-6.92-5.71h-0.08
		c-3.35-0.01-6.25,2.32-6.97,5.59L68.33,53.59l-5-7.5c-1.51-2.27-4.19-3.47-6.89-3.11c-2.7,0.36-4.96,2.23-5.82,4.82L44.1,67.37
		L28.62,5.45c-0.78-3.13-3.57-5.35-6.8-5.4c-3.25-0.11-6.14,2.04-6.99,5.17L2.04,50.02h-8.9c-3.94,0-7.14,3.2-7.14,7.14
		c0,3.94,3.2,7.14,7.14,7.14H7.42c3.19,0,5.99-2.11,6.87-5.18l6.95-24.35l14.95,59.81c0.77,3.08,3.48,5.28,6.65,5.41h0.27
		c3.07,0,5.8-1.97,6.77-4.88l9.67-28.99l6.18,9.28c1.58,2.38,4.44,3.59,7.26,3.06c2.81-0.53,5.04-2.68,5.66-5.48l6.93-31.24
		l7.65,38.25c0.57,2.83,2.79,5.04,5.61,5.6c2.83,0.56,5.72-0.64,7.33-3.04l12.16-18.27h17.6c3.94,0,7.14-3.2,7.14-7.14
		C143.07,53.22,139.87,50.02,135.93,50.02z"/>
	<path class="st0" d="M266.06,50.03h-21.42c-2.39,0-4.62,1.19-5.94,3.17l-4.72,7.08l-10.9-54.52c-0.67-3.3-3.55-5.68-6.92-5.71
		h-0.08c-3.35-0.01-6.25,2.32-6.97,5.59L198.46,53.6l-5-7.5c-1.51-2.27-4.19-3.47-6.89-3.11c-2.7,0.36-4.96,2.23-5.82,4.82
		l-6.52,19.57L158.75,5.46c-0.78-3.13-3.57-5.35-6.8-5.4c-3.25-0.11-6.14,2.04-6.99,5.17l-12.79,44.8h-8.9
		c-3.94,0-7.14,3.2-7.14,7.14c0,3.94,3.2,7.14,7.14,7.14h14.28c3.19,0,5.99-2.11,6.87-5.18l6.95-24.35l14.95,59.81
		c0.77,3.08,3.48,5.28,6.65,5.41h0.27c3.07,0,5.8-1.97,6.77-4.88l9.67-28.99l6.18,9.28c1.58,2.38,4.44,3.59,7.26,3.06
		c2.81-0.53,5.04-2.68,5.66-5.48l6.93-31.24l7.65,38.25c0.57,2.83,2.79,5.04,5.61,5.6c2.83,0.56,5.72-0.64,7.33-3.04l12.16-18.27
		h17.6c3.94,0,7.14-3.2,7.14-7.14C273.19,53.23,270,50.03,266.06,50.03z"/>
</g>
<g id="Layer_2">
</g>
</svg>
