<?xml version="1.0" encoding="utf-8"?>
<!-- Generator: Adobe Illustrator 24.1.2, SVG Export Plug-In . SVG Version: 6.00 Build 0)  -->
<svg version="1.1" id="guitar0" xmlns="http://www.w3.org/2000/svg" xmlns:xlink="http://www.w3.org/1999/xlink" x="0px" y="0px"
	 viewBox="0 0 363.3 363.3" style="enable-background:new 0 0 363.3 363.3;" xml:space="preserve">
<style type="text/css">
	.st0{fill:#FFFFFF;}
</style>
<path id="circle1" class="st0" d="M180.9,155.4c15.4,0,27.8,12.5,27.8,27.8S196.3,211,180.9,211s-27.8-12.5-27.8-27.8l0,0
	C153.1,167.8,165.6,155.4,180.9,155.4 M180.9,133.4c-27.5,0-49.8,22.3-49.8,49.8s22.3,49.8,49.8,49.8s49.8-22.3,49.8-49.8
	S208.4,133.4,180.9,133.4L180.9,133.4z"/>
<path id="circle2" class="st0" d="M180.5,97.7c45.8,0,82.9,37.1,82.9,82.9s-37.1,82.9-82.9,82.9s-82.9-37.1-82.9-82.9l0,0
	C97.7,134.8,134.8,97.7,180.5,97.7 M180.5,72.7C121,72.7,72.7,121,72.7,180.5S121,288.4,180.5,288.4s107.9-48.3,107.9-107.9l0,0
	C288.4,121,240.1,72.7,180.5,72.7z"/>
<path id="circle3" class="st0" d="M180.5,39.2c78,0,141.3,63.3,141.3,141.3c0,37.5-14.9,73.4-41.4,99.9
	c-54.9,55.5-144.4,55.9-199.8,1S24.7,137,79.6,81.6c0.3-0.3,0.7-0.7,1-1C107.1,54,143,39.1,180.5,39.2 M180.5,17.2
	c-90.2,0-163.3,73.1-163.3,163.3s73.1,163.3,163.3,163.3s163.3-73.1,163.3-163.3l0,0C343.9,90.3,270.7,17.2,180.5,17.2L180.5,17.2
	L180.5,17.2z"/>
</svg>
