<?xml version="1.0" encoding="utf-8"?>
<!-- Generator: Adobe Illustrator 24.1.2, SVG Export Plug-In . SVG Version: 6.00 Build 0)  -->
<svg version="1.1" id="icon_2" xmlns="http://www.w3.org/2000/svg" xmlns:xlink="http://www.w3.org/1999/xlink" x="0px" y="0px"
	 viewBox="0 0 363.3 363.3" style="enable-background:new 0 0 363.3 363.3;" xml:space="preserve">
<style type="text/css">
	.st0{fill:#FFFFFF;}
</style>
<path id="circle1" class="st0" d="M188.8,37.7c18.5,0,33.5,15,33.5,33.5s-15,33.5-33.5,33.5s-33.5-15-33.5-33.5l0,0l0,0
	C155.3,52.7,170.3,37.7,188.8,37.7 M188.8,33.7c-20.7,0-37.5,16.8-37.5,37.5s16.8,37.5,37.5,37.5s37.5-16.8,37.5-37.5l0,0
	C226.3,50.5,209.5,33.7,188.8,33.7z"/>
<path id="circle2" class="st0" d="M185.8,282.7c13.5,0,24.5,11,24.5,24.5s-11,24.5-24.5,24.5s-24.5-11-24.5-24.5l0,0
	C161.3,293.7,172.2,282.7,185.8,282.7L185.8,282.7 M185.8,269.7c-20.7,0-37.5,16.8-37.5,37.5s16.8,37.5,37.5,37.5
	s37.5-16.8,37.5-37.5l0,0l0,0C223.3,286.5,206.5,269.7,185.8,269.7z"/>
<path id="circle3" class="st0" d="M304.9,160.3c15.7,0,28.5,12.8,28.5,28.5s-12.8,28.5-28.5,28.5s-28.5-12.8-28.5-28.5l0,0l0,0
	C276.5,173.1,289.2,160.4,304.9,160.3 M304.9,151.3c-20.7,0-37.5,16.8-37.5,37.5s16.8,37.5,37.5,37.5s37.5-16.8,37.5-37.5l0,0l0,0
	C342.4,168.1,325.6,151.3,304.9,151.3z"/>
<path id="circle4" class="st0" d="M66.7,168.3c11.3,0,20.5,9.2,20.5,20.5s-9.2,20.5-20.5,20.5s-20.5-9.2-20.5-20.5
	C46.2,177.5,55.4,168.3,66.7,168.3 M66.7,151.3c-20.7,0-37.5,16.8-37.5,37.5s16.8,37.5,37.5,37.5s37.5-16.8,37.5-37.5l0,0l0,0
	C104.2,168.1,87.4,151.3,66.7,151.3z"/>
<path id="circle5" class="st0" d="M103.4,84.2c10.2,0,18.5,8.3,18.5,18.5s-8.3,18.5-18.5,18.5s-18.5-8.3-18.5-18.5l0,0
	C84.9,92.5,93.1,84.2,103.4,84.2C103.3,84.2,103.4,84.2,103.4,84.2 M103.4,65.2c-20.7,0-37.5,16.8-37.5,37.5s16.8,37.5,37.5,37.5
	s37.5-16.8,37.5-37.5l0,0l0,0C140.9,82,124.1,65.2,103.4,65.2z"/>
<path id="circle6" class="st0" d="M273.4,75.2c16.8,0,30.5,13.6,30.5,30.4s-13.6,30.5-30.4,30.5S243,122.5,243,105.7l0,0
	C243,88.9,256.5,75.2,273.4,75.2C273.3,75.2,273.4,75.2,273.4,75.2 M273.5,68.2c-20.7,0-37.5,16.8-37.5,37.5s16.8,37.5,37.5,37.5
	s37.5-16.8,37.5-37.5l0,0C311,85,294.2,68.2,273.5,68.2z"/>
<path id="circle7" class="st0" d="M273.4,250.7c14.6,0,26.5,11.8,26.5,26.4s-11.8,26.5-26.4,26.5S247,291.8,247,277.2l0,0
	C247,262.6,258.8,250.8,273.4,250.7 M273.5,239.7c-20.7,0-37.5,16.8-37.5,37.5s16.8,37.5,37.5,37.5s37.5-16.8,37.5-37.5l0,0l0,0
	C310.9,256.5,294.2,239.8,273.5,239.7L273.5,239.7z"/>
<path id="circle8" class="st0" d="M95.1,254.7c12.4,0,22.5,10.1,22.5,22.5c0,12.4-10.1,22.5-22.5,22.5s-22.5-10.1-22.5-22.5l0,0
	C72.7,264.8,82.7,254.8,95.1,254.7 M95.1,239.7c-20.7,0-37.5,16.8-37.5,37.5s16.8,37.5,37.5,37.5s37.5-16.8,37.5-37.5l0,0
	C132.6,256.5,115.8,239.7,95.1,239.7L95.1,239.7z"/>
</svg>
