<?xml version="1.0" encoding="utf-8"?>
<!-- Generator: Adobe Illustrator 24.1.2, SVG Export Plug-In . SVG Version: 6.00 Build 0)  -->
<svg version="1.1" id="icon_3" xmlns="http://www.w3.org/2000/svg" xmlns:xlink="http://www.w3.org/1999/xlink" x="0px" y="0px"
	 viewBox="0 0 363.3 363.3" style="enable-background:new 0 0 363.3 363.3;" xml:space="preserve">
<style type="text/css">
	.st0{fill:#FFFFFF;}
</style>
<path id="circle1" class="st0" d="M179.3,29.5c83.7,0,151.5,67.8,151.5,151.5c0,40.2-16,78.7-44.4,107.1
	c-59.2,59.2-155.1,59.2-214.3,0S13,133,72.1,73.9C100.5,45.4,139.1,29.4,179.3,29.5 M179.3,19.5C90.1,19.5,17.8,91.8,17.8,181
	s72.3,161.5,161.5,161.5S340.8,270.2,340.8,181l0,0C340.8,91.8,268.5,19.5,179.3,19.5z"/>
<path id="circle2" class="st0" d="M180,164.2c12.4,0,22.5,10.1,22.5,22.5s-10.1,22.5-22.5,22.5s-22.5-10.1-22.5-22.5l0,0
	C157.6,174.2,167.6,164.2,180,164.2 M180,149.2c-20.7,0-37.5,16.8-37.5,37.5s16.8,37.5,37.5,37.5s37.5-16.8,37.5-37.5l0,0
	C217.5,165.9,200.7,149.2,180,149.2z"/>
</svg>
